<svg xmlns="http://www.w3.org/2000/svg" viewBox="0 0 24 24" width="288" height="288"><path fill="#eceff1" d="M22 2.75A2.75 2.75 0 0 0 19.25 0H4.75A2.75 2.75 0 0 0 2 2.75v18.5A2.75 2.75 0 0 0 4.75 24h14.5A2.75 2.75 0 0 0 22 21.25V2.75z" class="colorECEFF1 svgShape"></path><path fill="#607d8b" d="M12 15c-1.103 0-2 .897-2 2v3.25a.75.75 0 0 0 1.5 0V19h1v1.25a.75.75 0 0 0 1.5 0V17c0-1.103-.897-2-2-2zm-.5 2.5V17a.5.5 0 0 1 1 0v.5h-1zm6.75-2.5h-2.5a.75.75 0 0 0 0 1.5h.5v3.75a.75.75 0 0 0 1.5 0V16.5h.5a.75.75 0 0 0 0-1.5zM7.125 15H5.75a.75.75 0 0 0-.75.75v4.5c0 .414.336.75.75.75h1.375A1.877 1.877 0 0 0 9 19.125c0-.424-.147-.811-.384-1.125.237-.314.384-.701.384-1.125A1.877 1.877 0 0 0 7.125 15zm.375 1.875a.375.375 0 0 1-.375.375H6.5v-.75h.625c.207 0 .375.168.375.375zM7.125 19.5H6.5v-.75h.625a.375.375 0 0 1 0 .75z" class="color607D8B svgShape"></path></svg>