<svg width="288" height="243" viewBox="0 0 288 243" fill="none" xmlns="http://www.w3.org/2000/svg">
<path fill-rule="evenodd" clip-rule="evenodd" d="M103.902 0.399756C97.8301 0.959206 85.7687 3.67582 78.9259 6.02608C49.3797 16.1733 25.1932 37.6792 11.0337 66.3929C7.2626 74.0413 2.34371 86.9037 3.1905 86.9037C3.40168 86.9037 5.69245 84.9141 8.2808 82.4832C21.0059 70.5297 39.0612 62.9152 62.4194 59.6519C74.958 57.9 102.523 57.5952 131.328 58.8902C173.485 60.7849 194.518 60.3351 213.133 57.1397C244.2 51.8076 265.67 38.663 280.076 16.1542C283.187 11.2924 288 1.86663 288 0.63457C288 -0.0401645 111.128 -0.265784 103.902 0.399756ZM74.7612 81.9938C64.2714 82.9394 49.9378 85.8067 41.5707 88.6344C5.9722 100.663 -7.2486 125.446 3.78907 159.461C5.61977 165.103 14.9433 184.507 15.823 184.507C16.0836 184.507 15.5391 181.562 14.6121 177.964C13.5459 173.826 12.791 168.551 12.5572 163.61C12.0793 153.5 13.1524 149.34 17.5378 144.308C23.6978 137.241 31.7535 134.995 50.9059 135.004C57.8043 135.006 69.6188 135.466 77.161 136.026C109.126 138.395 125.054 138.125 141.029 134.945C148.654 133.427 157.924 130.322 163.554 127.4C174.002 121.976 185.667 110.738 191.574 100.405C194.918 94.5556 199.69 83.4656 199.21 82.6629C199.068 82.4281 183.583 82.172 164.798 82.0949C146.012 82.0178 119.689 81.8177 106.301 81.6501C92.914 81.4817 78.7209 81.6366 74.7612 81.9938ZM41.075 142.828C31.6376 144.258 24.7633 148.278 21.623 154.202C11.2284 173.812 42.0294 212.939 84.7032 234.332C94.4423 239.215 106.044 243.711 106.825 242.906C107.096 242.626 106.77 242.08 106.099 241.693C103.764 240.345 91.5241 229.974 86.2583 224.881C73.7616 212.795 64.4127 198.451 61.3279 186.629C59.5726 179.9 59.7344 169.88 61.6947 163.996C63.5261 158.498 66.7967 152.763 70.731 148.152C72.8023 145.724 73.3735 144.619 72.7578 144.226C70.1687 142.576 48.9264 141.638 41.075 142.828Z" fill="#2349EC"/>
</svg>
