<svg xmlns="http://www.w3.org/2000/svg" enable-background="new 0 0 66 66" viewBox="0 0 66 66" width="288" height="288"><path fill="#544d80" d="M60.83,62.38H42.09c-2.15,0-3.4-2.42-2.16-4.18l3.43-4.84l5.93-8.38c0.52-0.74,1.34-1.11,2.16-1.11
			c0.82,0,1.64,0.37,2.16,1.11l9.37,13.22C64.23,59.96,62.97,62.38,60.83,62.38z" class="color544d80 svgShape"></path><path fill="#5bbba9" d="M51.46,8.87c0-2.9-2.35-5.25-5.25-5.25H7.77c-2.9,0-5.25,2.35-5.25,5.25v5.15h48.93V8.87z" class="color5bbba9 svgShape"></path><path d="M51.46,14.97H2.53c-0.53,0-0.95-0.43-0.95-0.95V8.87c0-3.42,2.78-6.2,6.2-6.2h38.44c3.42,0,6.2,2.78,6.2,6.2v5.15
					C52.41,14.54,51.98,14.97,51.46,14.97z M3.48,13.07h47.03v-4.2c0-2.37-1.93-4.29-4.29-4.29H7.77c-2.37,0-4.29,1.93-4.29,4.29
					V13.07z"></path><path fill="#ffffff" d="M51.46,14.02v29.85c-0.82,0-1.64,0.37-2.16,1.11l-5.93,8.38H7.78c-2.9,0-5.25-2.34-5.25-5.24v-34.1H51.46z" class="colorfff svgShape"></path><path d="M43.36 54.31H7.78c-3.42 0-6.2-2.78-6.2-6.19v-34.1c0-.53.43-.95.95-.95h48.93c.53 0 .95.43.95.95v29.85c0 .53-.43.95-.95.95-.56 0-1.06.26-1.38.71l-5.94 8.38C43.96 54.17 43.67 54.31 43.36 54.31zM3.48 14.97v33.15c0 2.37 1.93 4.29 4.3 4.29h35.1l5.65-7.98c.48-.68 1.19-1.17 1.98-1.39V14.97H3.48zM46.25 9.77H33.29c-.53 0-.95-.43-.95-.95 0-.53.43-.95.95-.95h12.96c.53 0 .95.43.95.95C47.2 9.34 46.77 9.77 46.25 9.77zM24.95 11.67c-1.57 0-2.84-1.28-2.84-2.85 0-1.57 1.28-2.85 2.84-2.85 1.57 0 2.85 1.28 2.85 2.85C27.79 10.39 26.52 11.67 24.95 11.67zM24.95 7.88c-.52 0-.94.42-.94.94 0 .52.42.94.94.94.52 0 .94-.42.94-.94C25.89 8.3 25.47 7.88 24.95 7.88zM17.29 11.67c-1.57 0-2.85-1.28-2.85-2.85 0-1.57 1.28-2.85 2.85-2.85s2.85 1.28 2.85 2.85C20.14 10.39 18.86 11.67 17.29 11.67zM17.29 7.88c-.52 0-.94.42-.94.94 0 .52.42.94.94.94s.94-.42.94-.94C18.24 8.3 17.81 7.88 17.29 7.88zM9.63 11.67c-1.57 0-2.84-1.28-2.84-2.85 0-1.57 1.28-2.85 2.84-2.85s2.85 1.28 2.85 2.85C12.48 10.39 11.2 11.67 9.63 11.67zM9.63 7.88c-.52 0-.94.42-.94.94 0 .52.42.94.94.94s.94-.42.94-.94C10.58 8.3 10.15 7.88 9.63 7.88z"></path><g><path d="M60.83,63.33H42.09c-1.35,0-2.58-0.74-3.2-1.94c-0.62-1.2-0.52-2.63,0.26-3.73l9.37-13.22c0.67-0.95,1.77-1.51,2.93-1.51
				c1.17,0,2.27,0.57,2.94,1.52l9.37,13.22c0.78,1.1,0.88,2.54,0.26,3.73C63.4,62.59,62.18,63.33,60.83,63.33z M51.46,44.82
				c-0.56,0-1.06,0.26-1.38,0.71l-9.37,13.22c-0.37,0.53-0.42,1.19-0.13,1.76c0.3,0.57,0.86,0.91,1.51,0.91h18.74
				c0.64,0,1.2-0.34,1.5-0.91c0.3-0.57,0.25-1.23-0.13-1.76l-9.37-13.22C52.52,45.08,52.02,44.82,51.46,44.82z"></path></g><g><path d="M51.69,56.09c-0.53,0-0.95-0.43-0.95-0.95v-6.17c0-0.53,0.43-0.95,0.95-0.95s0.95,0.43,0.95,0.95v6.17
					C52.65,55.66,52.22,56.09,51.69,56.09z"></path><circle cx="51.69" cy="58.4" r=".92"></circle></g><g><path d="M15.65 43.87V39.7H8.53v-1.37l6.83-9.78h2.24v9.52h2.14v1.63H17.6v4.17H15.65zM15.65 38.08v-5.11c0-.8.02-1.6.07-2.4h-.07c-.47.9-.85 1.56-1.27 2.26l-3.75 5.21v.05H15.65zM31.51 36.05c0 5.21-1.93 8.08-5.33 8.08-2.99 0-5.02-2.8-5.07-7.87 0-5.14 2.22-7.97 5.33-7.97C29.67 28.29 31.51 31.17 31.51 36.05zM23.19 36.28c0 3.98 1.23 6.25 3.11 6.25 2.12 0 3.13-2.47 3.13-6.39 0-3.77-.97-6.25-3.11-6.25C24.51 29.9 23.19 32.11 23.19 36.28zM33.91 41.49c.59.38 1.96.97 3.39.97 2.66 0 3.49-1.7 3.46-2.97-.02-2.14-1.96-3.06-3.96-3.06h-1.16v-1.56h1.16c1.51 0 3.42-.78 3.42-2.59 0-1.23-.78-2.31-2.69-2.31-1.23 0-2.4.54-3.06 1.01l-.54-1.51c.8-.59 2.36-1.18 4.01-1.18 3.02 0 4.38 1.79 4.38 3.65 0 1.58-.94 2.92-2.83 3.61v.05c1.89.38 3.42 1.79 3.42 3.94 0 2.45-1.91 4.6-5.59 4.6-1.72 0-3.23-.54-3.98-1.04L33.91 41.49z"></path></g><g><path d="M20.65,20.23H9.1c-0.53,0-0.95-0.43-0.95-0.95c0-0.53,0.43-0.95,0.95-0.95h11.56c0.53,0,0.95,0.43,0.95,0.95
				C21.6,19.8,21.18,20.23,20.65,20.23z"></path></g><g><path d="M15.69,24.47H9.1c-0.53,0-0.95-0.43-0.95-0.95s0.43-0.95,0.95-0.95h6.59c0.53,0,0.95,0.43,0.95,0.95
				S16.21,24.47,15.69,24.47z"></path></g></svg>