<svg version="1.2" xmlns="http://www.w3.org/2000/svg" viewBox="0 0 362 446" width="362" height="446"><style>.a{fill:#0091ea}.b{fill:#fff}</style><path class="a" d="m-557.4 217.9c4.8 0 9-1.7 12.4-5.2 1-1 1.8-2.2 2.6-3.2 0.7 1.2 1.6 2.2 2.5 3.2 3.4 3.4 7.4 5.2 12.2 5.2 4.8 0 9-1.7 12.2-5.2 3.4-3.4 4.9-7.5 4.9-12.4 0-4.8-1.7-9-4.9-12.2-3.2-3.2-7.4-4.9-12.2-4.9-4.8 0-9 1.7-12.2 4.9-1 1-1.8 2.1-2.5 3.2-0.7-1.2-1.6-2.2-2.6-3.2-3.4-3.4-7.5-4.9-12.4-4.9-4.7 0-8.8 1.7-12.2 5.1-3.4 3.4-5.1 7.4-5.1 12.2 0 4.8 1.7 9 4.9 12.4 3.5 3.3 7.5 5 12.4 5z"/><path class="a" d="m-205.4 188.4c-4.2 0-7.5 1.4-10.2 4.4-2.7 3-4 6.5-4 10.7 0 3 0.8 7.4 2.2 13.1 1.4 5.7 2.2 10.2 2.2 13.1 0 10.5-7.5 15.7-22.5 15.7h-5.3-8.5-3.6c-13.4 0-26.1-5.9-38.2-17.6-14.2-14.1-23.7-23.5-28.6-28.5-17.4-16.9-32.4-30.4-45-40.6-2.1-1.7-3.1-3.6-3.1-5.6 0-2.1 1.3-3.6 3.8-4.7 25-9.8 51.9-18 80.5-24.5 8.8-2 13.3-6.8 13.3-14.1 0-9.8-5.7-14.7-17.2-14.7q-3 0-6.9 0.9c-41.9 9.8-72.5 20.7-92 32.7-8.7 5.3-13 14.1-13 26.1 0 5.9 0.9 10.5 2.9 14.1 3.4 6 14.6 17.3 33.6 33.6 16.9 14.6 25.4 24.5 25.4 29.7q0 10.5-21.6 12.6c-3.1 0.3-14.8 0.4-35.1 0.4h-4.3-4.8q-20.3 0-23.4-16.5c-1.2-6.1-2-10-2.2-11.4-1.8-4.4-5.3-6.6-10.4-6.6-4.7 0-8.3 3-10.9 9-4.3 9.6-6.9 15.2-8.2 16.8-9 11.3-32.7 16.9-70.9 16.9h-18.6c-26 0-43.8-3-53.5-9.1-6.5-4.2-9.8-10.4-9.8-18.9 0-2.5 0.5-6.2 1.6-11.1 1-4.9 1.6-8.6 1.6-11.1 0-7.4-3.6-11.1-11.1-11.1-6.9 0-12.4 6-16 18-2.6 8.5-3.9 17.2-3.9 26.3 0 35 29.8 52.4 89.5 52.4 57.4 0 92.9-9 106.4-26.9 5.9 12.4 17.3 18.6 34.3 18.6h1.7 8.7 0.3c25.9 0 44.1-1.6 54.8-4.8 16.3-4.9 26.3-15.2 30-30.7 16.8 23.7 37.7 35.5 62.6 35.5h1.6 8.6 3.4c16.8 0 29.9-4.9 39.4-14.7 9.5-9.8 14.2-23.2 14.2-40.1-0.4-24.9-6.9-37.3-19.8-37.3z"/><path class="a" d="m-230.1 299.4c-4.7 0-8.8 1.7-12.2 5.1-2.2 2.2-3.6 4.8-4.4 7.5-0.8-2.9-2.2-5.3-4.4-7.5-3.4-3.4-7.4-5.1-12.2-5.1-4.8 0-9 1.7-12.4 4.9-3.4 3.3-5.1 7.4-5.1 12.2 0 4.8 1.7 9 5.1 12.4 3.4 3.4 7.5 5.2 12.4 5.2 4.9 0 9-1.7 12.2-5.2 2.2-2.2 3.5-4.8 4.3-7.7 0.8 2.9 2.1 5.5 4.3 7.7 3.4 3.4 7.4 5.2 12.2 5.2 4.8 0 9-1.7 12.4-5.2 3.4-3.4 5.1-7.5 5.1-12.4 0-4.9-1.7-9-5.1-12.2-3.5-3.2-7.4-4.9-12.2-4.9z"/><path fill-rule="evenodd" class="a" d="m-9.7 243.5c0 11.2-3 20.6-9 28.4-6.5 8.7-15.2 13-26 13-13.9 0-25.1-5.2-33.8-15.6-7.7 7.7-17 11.6-28.2 11.6h-11.1c-20.2 0-33.6-7-40.2-21.2-4-8.7-6.5-25-7.4-48.9l-3.5-96.1c-0.1-5.5 0.9-10 3.4-13.8 2.8-4.3 6.8-6.5 12-6.5 10.3 0 15.5 6.8 15.5 20.3v101.8c0 19.3 7.8 29.1 23.7 29.1h3.9c5.9 0 10.3-0.9 13.4-2.6 3.1-1.7 6.5-5.1 9.9-10 7.5-10.8 12.3-17.3 14.3-19.5 9.5-10.3 19-15.5 28.6-15.5q17.4 0 26.7 14.7c5.3 8.2 8.1 18.5 7.8 30.8zm-23.5 1.1q0-6.4-3-11.1c-2.4-3.7-5.5-5.5-9.4-5.5-3.9 0-7.8 1.8-11.7 5.3-3.9 3.5-5.9 7.3-5.9 11.2 0 3 2.2 5.6 6.9 8.1 4 2 7.5 3 10.9 3 8.1 0 12.1-3.6 12.2-11z"/><path class="a" d="m182.6 368c-85 0-153.7-68.7-153.7-153.7 0-85 68.7-153.7 153.7-153.7 85 0 153.7 68.7 153.7 153.7 0 85-68.7 153.7-153.7 153.7z"/><path class="b" d="m276.9 196.1c-1.3-29.1-25.2-52.2-54.6-52.2-16.3 0-31 7.2-41 18.5-10-11.3-24.7-18.5-41-18.5-28.8 0-52.4 22.2-54.5 50.6-0.1 0.6-0.1 1.4-0.1 2.1v61.7c0 7.6 6.1 13.7 13.7 13.7h0.3c7.6 0 13.7-6.1 13.7-13.7v-59.7h0.1c0-15 12.2-27.2 27.2-27.2 15 0 27.2 12.2 27.2 27.2h0.1v50.4c0 7.6 6.1 13.7 13.7 13.7h0.3c7.6 0 13.7-6.1 13.7-13.7v-50.5c0.1-15 12.2-27 27.2-27 15 0 27.2 12.2 27.2 27.2h0.1v59.8c0 7.5 6.1 13.5 13.5 13.5h0.3c7.5 0 13.5-6.1 13.5-13.5v-61c-0.6-0.7-0.6-1-0.6-1.4z"/><path class="b" d="m225.2 277.3c-0.6-1-2.6 1-2.6 1-7.6 8.2-23.3 13.5-39.6 13.5-16.3 0-31.9-5.3-39.6-13.5 0 0-2-2.1-2.6-1-0.8 1.2 0.4 3.1 0.4 3.1 9.7 14 24.5 20.3 41.8 20.3 17.3 0 32.1-6.3 41.8-20.3 0.1 0 1.2-1.9 0.4-3.1z"/></svg>